<svg width="80" height="80" viewBox="0 0 80 80" fill="none" xmlns="http://www.w3.org/2000/svg">
<rect width="80" height="80" rx="40" fill="#FF3175"/>
<path fill-rule="evenodd" clip-rule="evenodd" d="M59.8017 51.0591C60.3678 51.2775 60.9561 51.4493 61.5624 51.5702C61.6069 51.579 61.6515 51.5876 61.6962 51.5959C62.1013 51.6713 62.1013 52.2776 61.6962 52.353C61.6515 52.3613 61.6069 52.3699 61.5624 52.3787C60.9561 52.4996 60.3678 52.6714 59.8017 52.8898C59.4629 53.0205 59.132 53.1678 58.81 53.3309C56.58 54.4604 54.774 56.3447 53.6914 58.6715C53.5351 59.0075 53.3939 59.3527 53.2687 59.7063C53.0594 60.297 52.8947 60.9108 52.7789 61.5434C52.7704 61.5898 52.7622 61.6364 52.7542 61.683C52.6819 62.1057 52.1009 62.1057 52.0287 61.683C52.0207 61.6364 52.0124 61.5898 52.004 61.5434C51.8881 60.9108 51.7235 60.297 51.5142 59.7063C51.3889 59.3528 51.2477 59.0075 51.0914 58.6715C50.0089 56.3447 48.2029 54.4604 45.9729 53.3309C45.6508 53.1678 45.32 53.0205 44.9812 52.8898C44.4151 52.6714 43.8268 52.4996 43.2205 52.3787C43.1759 52.3699 43.1314 52.3613 43.0867 52.353C42.6816 52.2776 42.6816 51.6713 43.0867 51.5959C43.1314 51.5876 43.1759 51.579 43.2205 51.5702C43.8268 51.4493 44.4151 51.2775 44.9812 51.0591C45.32 50.9284 45.6508 50.7811 45.9729 50.618C48.2029 49.4885 50.0089 47.6042 51.0914 45.2773C51.2477 44.9413 51.3889 44.5961 51.5142 44.2427C51.7235 43.6519 51.8881 43.0381 52.004 42.4055C52.0124 42.3591 52.0207 42.3125 52.0287 42.2659C52.1009 41.8432 52.6819 41.8432 52.7542 42.2659C52.7622 42.3125 52.7704 42.3591 52.7789 42.4055C52.8947 43.0381 53.0594 43.6519 53.2687 44.2427C53.3939 44.5961 53.5351 44.9413 53.6914 45.2773C54.774 47.6042 56.58 49.4885 58.81 50.618C59.132 50.7811 59.4628 50.9284 59.8017 51.0591ZM46.2666 36.0412C46.6626 36.1525 47.064 36.2502 47.4706 36.3338C47.5341 36.3468 47.5977 36.3595 47.6615 36.3719L47.6808 36.3756L47.7069 36.3806C47.7472 36.3883 47.7913 36.3965 47.8796 36.413L47.9105 36.4187C48.5583 36.5466 48.5583 37.5145 47.9105 37.6424L47.8796 37.6481C47.7913 37.6646 47.7472 37.6728 47.7069 37.6805L47.6808 37.6855L47.6615 37.6892C47.5977 37.7016 47.5341 37.7143 47.4706 37.7273C47.0641 37.8109 46.6626 37.9086 46.2666 38.0199C45.9285 38.115 45.5943 38.2201 45.2644 38.3348C39.9271 40.1911 35.7273 44.5732 33.9482 50.1421C33.8382 50.4863 33.7375 50.835 33.6464 51.1879C33.5397 51.601 33.446 52.0199 33.3659 52.4441C33.3535 52.5103 33.3413 52.5767 33.3294 52.6432L33.3258 52.6634L33.3211 52.6906C33.3138 52.7321 33.306 52.7776 33.2906 52.8677L33.29 52.8708L33.2846 52.903C33.162 53.5789 32.2344 53.5789 32.1118 52.903L32.1062 52.8708C32.0905 52.7787 32.0826 52.7326 32.0753 52.6906L32.0705 52.6634L32.0669 52.6432C32.055 52.5767 32.0429 52.5103 32.0304 52.4441C31.9503 52.0198 31.8567 51.601 31.75 51.1879C31.6588 50.835 31.5581 50.4863 31.4482 50.1421C29.669 44.5732 25.4692 40.1911 20.132 38.3348C19.8021 38.2201 19.4679 38.115 19.1296 38.0199C18.7337 37.9086 18.3322 37.8109 17.9257 37.7273C17.8622 37.7143 17.7986 37.7016 17.7349 37.6892L17.7155 37.6855L17.6894 37.6805C17.6492 37.6728 17.605 37.6646 17.5167 37.6481L17.4858 37.6424C16.838 37.5145 16.838 36.5466 17.4858 36.4187L17.5167 36.413L17.6101 36.3955L17.6894 36.3806L17.7155 36.3756L17.7349 36.3719C17.7986 36.3595 17.8622 36.3468 17.9257 36.3338C18.3322 36.2502 18.7337 36.1525 19.1296 36.0412C19.4679 35.9461 19.8021 35.841 20.132 35.7263C25.4692 33.87 29.669 29.4878 31.4482 23.919C31.5581 23.5748 31.6588 23.2261 31.75 22.8732C31.8567 22.4601 31.9503 22.0412 32.0304 21.617C32.0429 21.5508 32.055 21.4844 32.0669 21.4179L32.0705 21.3977L32.0753 21.3704L32.0859 21.309L32.1056 21.1938L32.1118 21.158C32.2344 20.4821 33.162 20.4821 33.2845 21.158L33.29 21.1902C33.3058 21.2822 33.3137 21.3285 33.3211 21.3704L33.3258 21.3977L33.3294 21.4179C33.3413 21.4844 33.3535 21.5508 33.3659 21.617C33.446 22.0412 33.5397 22.4601 33.6464 22.8732C33.7375 23.2261 33.8382 23.5748 33.9482 23.919C35.7273 29.4878 39.9271 33.87 45.2644 35.7263C45.5943 35.841 45.9285 35.9461 46.2666 36.0412ZM55.1997 23.0766C54.5189 22.9409 53.874 22.7034 53.2798 22.3798C53.0155 22.2359 52.7613 22.0749 52.5185 21.8982C51.8418 21.406 51.2535 20.792 50.7817 20.0861C50.6124 19.8326 50.458 19.5674 50.3201 19.2917C50.0099 18.6717 49.7824 17.9988 49.6523 17.2884C49.647 17.259 49.6417 17.2297 49.6367 17.2002C49.591 16.9333 49.2241 16.9333 49.1784 17.2002C49.1734 17.2297 49.1682 17.259 49.1629 17.2884C49.0328 17.9988 48.8052 18.6717 48.4951 19.2917C48.3571 19.5674 48.2028 19.8326 48.0335 20.0861C47.5617 20.792 46.9733 21.406 46.2967 21.8982C46.0538 22.0749 45.7996 22.2359 45.5354 22.3798C44.9412 22.7034 44.2962 22.9409 43.6154 23.0766C43.5873 23.0822 43.5591 23.0876 43.5309 23.0929C43.2751 23.1405 43.2751 23.5234 43.5309 23.571C43.5591 23.5763 43.5873 23.5817 43.6154 23.5873C44.2962 23.723 44.9412 23.9605 45.5354 24.2841C45.7996 24.428 46.0538 24.589 46.2967 24.7657C46.9733 25.2579 47.5617 25.8718 48.0335 26.5778C48.2028 26.8312 48.3571 27.0965 48.4951 27.3722C48.8052 27.9921 49.0328 28.6651 49.1629 29.3755C49.1682 29.4048 49.1734 29.4342 49.1784 29.4637C49.2241 29.7306 49.591 29.7306 49.6367 29.4637C49.6417 29.4342 49.647 29.4048 49.6523 29.3755C49.7824 28.6651 50.0099 27.9921 50.3201 27.3722C50.458 27.0965 50.6124 26.8312 50.7817 26.5778C51.2535 25.8718 51.8418 25.2579 52.5185 24.7657C52.7613 24.589 53.0155 24.428 53.2798 24.2841C53.874 23.9605 54.5189 23.723 55.1997 23.5873C55.2279 23.5817 55.256 23.5763 55.2843 23.571C55.5401 23.5234 55.5401 23.1405 55.2843 23.0929C55.256 23.0876 55.2279 23.0822 55.1997 23.0766Z" fill="white"/>
</svg>
