<svg width="80" height="80" viewBox="0 0 80 80" fill="none" xmlns="http://www.w3.org/2000/svg">
<rect x="0.5" y="0.5" width="79" height="79" rx="39.5" fill="#272AEF"/>
<rect x="0.5" y="0.5" width="79" height="79" rx="39.5" stroke="#272AEF"/>
<g clip-path="url(#clip0_340_991)">
<path d="M31.667 36.113C31.667 34.9341 32.1353 33.8035 32.9689 32.9699C33.8025 32.1363 34.9331 31.668 36.112 31.668H50.5553C51.1391 31.668 51.7171 31.7829 52.2564 32.0063C52.7956 32.2297 53.2857 32.5571 53.6984 32.9699C54.1112 33.3826 54.4386 33.8726 54.662 34.4119C54.8854 34.9512 55.0003 35.5292 55.0003 36.113V50.5563C55.0003 51.14 54.8854 51.718 54.662 52.2573C54.4386 52.7966 54.1112 53.2866 53.6984 53.6994C53.2857 54.1121 52.7956 54.4396 52.2564 54.6629C51.7171 54.8863 51.1391 55.0013 50.5553 55.0013H36.112C35.5283 55.0013 34.9503 54.8863 34.411 54.6629C33.8717 54.4396 33.3817 54.1121 32.9689 53.6994C32.5561 53.2866 32.2287 52.7966 32.0053 52.2573C31.782 51.718 31.667 51.14 31.667 50.5563V36.113Z" fill="white" stroke="white" stroke-width="3.33333" stroke-linecap="round" stroke-linejoin="round"/>
<path d="M26.6867 47.895C26.1756 47.6036 25.7505 47.1825 25.4543 46.6742C25.1581 46.1658 25.0014 45.5883 25 45V28.3333C25 26.5 26.5 25 28.3333 25H45C46.25 25 46.93 25.6417 47.5 26.6667" stroke="white" stroke-width="3.33333" stroke-linecap="round" stroke-linejoin="round"/>
</g>
<defs>
<clipPath id="clip0_340_991">
<rect width="40" height="40" fill="white" transform="translate(20 20)"/>
</clipPath>
</defs>
</svg>
